<svg id="Layer_1" data-name="Layer 1" xmlns="http://www.w3.org/2000/svg" viewBox="0 0 1968 330.68"><defs><style>.cls-1{opacity:0.3;}.cls-1,.cls-2{isolation:isolate;}.cls-2{opacity:0.5;}.cls-3{fill:#fff;}</style></defs><title>canvas2</title><path class="cls-1" d="M1932-2.56c-122-1.92-274.1,17.17-415.81,95.48C1212.27,260.86,1025.9,285.28,786.66,243s-275.33-61.57-543.42,3.59C129.68,274.17,35.2,277.89-36,273v55H1932Z" transform="translate(36 2.69)"/><path class="cls-2" d="M1932,39.7c-114.78-14.71-260-4.41-411,80.22C1180.66,310.58,969.52,289,765.29,251.11s-221.64-45.68-489.74,19.48c-123.44,30-231.2,31-311.55,23.42v34H1932Z" transform="translate(36 2.69)"/><path class="cls-3" d="M1932,54.61c-101.62-1.2-235.71,20.63-402.65,95.22C1099,342.12,903.74,291.88,765.29,263.64S556.05,228.13,288,293.29A961.89,961.89,0,0,1-36,315.51V328H1932Z" transform="translate(36 2.69)"/></svg>